<svg xmlns="http://www.w3.org/2000/svg" width="44" height="48" viewBox="0 0 44 48">
  <path id="Airbnb-Logo" d="M43.337,34.087c-.211-.6-.459-1.188-.695-1.731-.362-.833-.742-1.667-1.107-2.475l-.028-.064C38.234,22.61,34.722,15.3,31.068,8.1l-.154-.307c-.374-.734-.758-1.495-1.154-2.242a14.473,14.473,0,0,0-1.7-2.657,7.828,7.828,0,0,0-12.124,0,14.619,14.619,0,0,0-1.695,2.657c-.4.754-.789,1.523-1.163,2.264l-.145.284C9.281,15.3,5.769,22.607,2.5,29.814l-.047.105c-.362.8-.733,1.616-1.088,2.433C1.128,32.9.883,33.48.669,34.084a10.779,10.779,0,0,0-.563,5.173,10.193,10.193,0,0,0,6.163,8,10.087,10.087,0,0,0,3.864.76,10.9,10.9,0,0,0,1.245-.073,12.546,12.546,0,0,0,4.751-1.632,24.366,24.366,0,0,0,5.877-4.994,24.307,24.307,0,0,0,5.877,4.994,12.583,12.583,0,0,0,4.751,1.632,10.9,10.9,0,0,0,1.245.073,10.094,10.094,0,0,0,10.027-8.763,10.884,10.884,0,0,0-.569-5.17M22,36.588a24.29,24.29,0,0,1-4.776-8.935,7.989,7.989,0,0,1-.164-2.948,4.921,4.921,0,0,1,.761-2.015A4.98,4.98,0,0,1,22.006,20.6a4.977,4.977,0,0,1,4.179,2.092,4.843,4.843,0,0,1,.761,2.015,8.057,8.057,0,0,1-.164,2.948A24.415,24.415,0,0,1,22,36.588M40.91,38.826A7.124,7.124,0,0,1,36.6,44.421a7.25,7.25,0,0,1-3.622.482,9.411,9.411,0,0,1-3.619-1.258,21.9,21.9,0,0,1-5.377-4.669c3.094-3.88,5.025-7.457,5.738-10.644a11.1,11.1,0,0,0,.2-4.094,8.008,8.008,0,0,0-15.85,0,11.093,11.093,0,0,0,.2,4.094c.714,3.187,2.647,6.764,5.741,10.647a22.015,22.015,0,0,1-5.374,4.669,9.464,9.464,0,0,1-3.619,1.258A7.262,7.262,0,0,1,7.4,44.424a7.131,7.131,0,0,1-4.308-5.595,7.625,7.625,0,0,1,.418-3.711c.17-.482.365-.958.61-1.52.346-.8.714-1.606,1.069-2.389l.047-.105C8.492,23.935,11.982,16.67,15.617,9.5l.145-.284c.371-.731.751-1.485,1.138-2.216a11.81,11.81,0,0,1,1.333-2.117,4.833,4.833,0,0,1,7.527,0A11.747,11.747,0,0,1,27.094,7c.384.725.761,1.472,1.129,2.194l.154.307c3.635,7.163,7.125,14.431,10.379,21.6l.028.064c.362.8.736,1.619,1.088,2.427.245.565.443,1.038.61,1.52a7.52,7.52,0,0,1,.428,3.711" transform="translate(-0.003 -0.02)" fill="#fff"/>
</svg>
